<svg id="Logo" xmlns="http://www.w3.org/2000/svg" width="146.655" height="102.633" viewBox="0 0 146.655 102.633">
  <path id="Path_32" data-name="Path 32" d="M395.867,51.987c0,.415-.1.548-.537.543q-4.272-.052-8.544-.046c-.389,0-.474-.126-.473-.493.017-2.632,0-5.264.028-7.9.006-.476-.122-.606-.592-.606-4.689,0-9.377-.024-14.064-.042-1.84-.007-3.679-.024-5.517-.024a.588.588,0,0,1-.572-.3,24.549,24.549,0,0,0-14.614-10.688c-.052-.013-.1-.033-.153-.05-.033-.151-.087-.244-.223-.072-.07-.011-.14-.022-.211-.035-.068-.3-.347-.288-.556-.353a54.62,54.62,0,0,0-10.54-1.984c-1.923-.2-3.863-.269-5.8-.332-1.777-.057-3.551.1-5.329.185q-2.954.138-5.9.434c-1.656.17-3.311.349-4.956.585-2.178.314-4.351.666-6.51,1.084-3.465.666-6.9,1.451-10.329,2.3a17.785,17.785,0,0,1-3.031.705,42.433,42.433,0,0,1,4.31-7.773A50.956,50.956,0,0,1,331.622,6.193a48.82,48.82,0,0,1,13.92-1.567,51.407,51.407,0,0,1,44.839,28.9c.255.522.253.524-.345.524-1.084,0-2.165.013-3.247-.005-.338-.006-.465.066-.463.441q.025,4.275,0,8.546c0,.412.157.458.5.458,2.848.007,5.7.039,8.544.041.4,0,.517.092.513.5Q395.849,48.013,395.867,51.987Z" transform="translate(-249.232 -4.601)" fill="#008bb9"/>
  <path id="Path_33" data-name="Path 33" d="M510.845,386.354c-7.289,11.836-17.4,20.157-30.676,24.474a49.993,49.993,0,0,1-18.2,2.224,40.707,40.707,0,0,1-6.953-.9,17.948,17.948,0,0,0-1.1-2.857c-1.827-4.548-3.609-9.115-5.246-13.735-1.133-3.2-2.2-6.424-3.171-9.678a121.066,121.066,0,0,1-2.975-12.048,15.084,15.084,0,0,1-.389-2.649,1,1,0,0,1,1.047.714c3.522,7.633,9.358,12.57,17.617,14.143,9.754,1.859,17.853-1.322,24.168-8.986a1.321,1.321,0,0,1,1.154-.582q10.09.061,20.181.072c.214,0,.43-.022.646-.035a.143.143,0,0,1,0,.1c0,2.957,0,5.914-.013,8.871,0,.386.118.484.489.478,1.187-.022,2.376-.009,3.555-.009C511.055,386.141,510.915,386.241,510.845,386.354Z" transform="translate(-369.967 -310.499)" fill="#2fb9d0"/>
  <path id="Path_34" data-name="Path 34" d="M90.115,352.73a17.936,17.936,0,0,1,1.1,2.857,46.629,46.629,0,0,1-8.452-2.409,51.364,51.364,0,0,1-31.946-37.925,45.371,45.371,0,0,1-.892-7.551c-.022-.319-.212-.382-.5-.4-3.869-.233-7.742-.347-11.614-.459q-13.944-.4-27.885-.827c-1.08-.033-2.162-.068-3.243-.077-.379,0-.524-.1-.515-.522.024-1.15,0-1.143,1.163-1.165q11.38-.224,22.758-.456c4.829-.1,9.658-.186,14.486-.308,1.761-.046,3.524-.092,5.286-.089,0,1.13.024,2.259.006,3.387-.006.341.094.465.364.508.048.007.1.013.164.017.223.011.449.022.672.035l7.566.417v0c2,.1,3.991.188,5.988.288,2.1.105,4.208.227,6.313.319a.537.537,0,0,1,.546.4c.582,1.432,1.19,2.854,1.757,4.292a.88.88,0,0,0,.727.6c1.46.31,2.929.569,4.369.967a15.082,15.082,0,0,0,.389,2.649A121.066,121.066,0,0,0,81.7,329.317c.969,3.254,2.038,6.475,3.171,9.678C86.507,343.615,88.288,348.182,90.115,352.73Z" transform="translate(-6.168 -253.939)" fill="#109ec3"/>
  <path id="Path_35" data-name="Path 35" d="M327.643,158.313a24.543,24.543,0,0,0-5.682-.6q-15.439.606-22.209,14.51a1.072,1.072,0,0,1-.847.685c-1.82.354-3.631.751-5.451,1.108a.678.678,0,0,0-.631.592c-.345,1.508-.744,3-1.083,4.513-.091.4-.249.511-.644.519q-6.651.113-13.3.26c-2.538.054-5.076.12-7.612.181a51.378,51.378,0,0,1,4.227-18.571c.085-.2.19-.382.286-.574a17.787,17.787,0,0,0,3.031-.705c3.426-.851,6.865-1.635,10.329-2.3,2.16-.417,4.332-.77,6.51-1.084,1.645-.236,3.3-.415,4.956-.585q2.946-.3,5.9-.434c1.778-.081,3.551-.242,5.329-.185,1.936.063,3.876.131,5.8.332a54.618,54.618,0,0,1,10.54,1.984C327.3,158.025,327.574,158.016,327.643,158.313Z" transform="translate(-226.48 -130.632)" fill="#109ec3"/>
  <path id="Path_36" data-name="Path 36" d="M270.137,303.345v.009l-.009-.009Z" transform="translate(-226.434 -253.894)" fill="#109ec3"/>
  <path id="Path_37" data-name="Path 37" d="M270.137,303.354h-.009v-.009Z" transform="translate(-226.434 -253.894)" fill="#139fc4"/>
  <path id="Path_38" data-name="Path 38" d="M284.975,327.655v0l-7.566-.417C279.932,327.366,282.452,327.515,284.975,327.655Z" transform="translate(-232.51 -273.835)" fill="#139fc4"/>
  <path id="Path_39" data-name="Path 39" d="M833.621,358.527a.127.127,0,0,0,0-.094c0-2.83,0-5.659-.009-8.489,0-.331.088-.428.421-.426q4.353.018,8.706,0c.329,0,.427.093.426.425q-.023,4.109-.009,8.218c0,.311-.094.394-.4.392C839.713,358.537,836.667,358.534,833.621,358.527Z" transform="translate(-696.644 -292.423)" fill="#008bb9"/>
  <path id="Path_40" data-name="Path 40" d="M618.572,171.576c.137-.171.19-.079.224.072A.214.214,0,0,1,618.572,171.576Z" transform="translate(-517.2 -143.86)" fill="#109ec3"/>
</svg>
